<svg xmlns="http://www.w3.org/2000/svg" version="1.1" xmlns:xlink="http://www.w3.org/1999/xlink" xmlns:svgjs="http://svgjs.dev/svgjs" width="100%" height="100%" viewBox="0 0 1000 600"><rect width="1000" height="600" x="0" y="0" fill="#0000"/><g><circle r="166.66666666666666" cx="341.43854777018225" cy="363.66071707214655" fill="#00ff00" transform="matrix(0.7152183581337437,0,0,0.7152183581337436,0,39.90320465934977)"/><path d="M413.84668686136627 322.9126221824311L413.84668686136627 322.9126221824311Q413.84668686136627 329.769577379931 411.81256618076816 335.1829630621677Q409.81125389824433 340.62915714247856 406.2679469062348 344.89424889211966Q402.7246399142253 349.12653224368654 398.00023059154597 352.4401804491769Q393.27582126886665 355.75382865466725 387.59996840203667 358.5753508890452L387.59996840203667 358.5753508890452Q390.2246402479696 359.5267944331959 393.7679472399791 361.52810671571973Q397.3112542319886 363.52941899824367 400.59209403940474 367.0727259902531Q403.9057422448951 370.61603298226265 406.1695217120123 376.1934606548702Q408.4004927810553 381.73807992940357 408.4004927810553 389.7761374575732L408.4004927810553 389.7761374575732Q408.4004927810553 400.40605843360174 403.9057422448951 409.36275110784794Q399.41099170873497 418.3522521801683 390.5527242287112 424.8483149988524Q381.69445674868746 431.3443778175365 368.833564703616 434.9861100037685Q355.97267265854447 438.6606505880746 339.17477284457357 438.6606505880746L339.17477284457357 438.6606505880746L269.0304177620152 438.6606505880746L300.92018069010066 288.66065459300603L363.05928664256345 288.66065459300603Q372.2456381033288 288.66065459300603 381.36637276794585 289.97299051597247Q390.4542990344887 291.2525180408648 397.6393382127302 295.0254838193934Q404.85718578904584 298.8312579959962 409.351936325206 305.55697960119943Q413.84668686136627 312.2827012064026 413.84668686136627 322.9126221824311ZM338.71545527153523 351.4887369050262L349.5750350340829 351.4887369050262Q354.79157032787464 351.4887369050262 358.43330251410663 348.43755588412915Q362.1078430984128 345.3535664651579 364.47004775975245 340.7603907347752Q366.8322524210921 336.1344066063184 368.01335475176194 330.81944611830414Q369.19445708243177 325.5044856302899 369.19445708243177 321.272202278723L369.19445708243177 321.272202278723Q369.19445708243177 314.4152470812232 366.01204246923805 309.55960416624714Q362.7968194579702 304.7367696493454 355.97267265854447 304.7367696493454L355.97267265854447 304.7367696493454L348.8860586745255 304.7367696493454L338.71545527153523 351.4887369050262ZM323.13146618630833 423.7656378624051L332.580284831667 423.7656378624051Q339.66689881568595 423.7656378624051 344.3913081383653 419.7630132973573Q349.1157174610446 415.76038873230954 352.1668984819417 409.8548770789604Q355.2508879009129 403.94936542561123 356.5632238238794 397.45330260692714Q357.8427513487717 390.95723978824304 357.8427513487717 385.97036328097045L357.8427513487717 385.97036328097045Q357.8427513487717 377.70264696628163 354.43067794905886 372.8798124493798Q350.98579615127187 368.0241695344038 343.4398645942146 368.0241695344038L343.4398645942146 368.0241695344038L334.7128307064875 368.0241695344038L323.13146618630833 423.7656378624051Z " fill="#000000" transform="matrix(0.7152183581337437,0,0,0.7152183581337436,0,39.90320465934977)"/><path d="M698.7307268818214 323.49293642258453L698.7307268818214 323.49293642258453Q698.7307268818214 328.5731504016977 697.223677758831 332.58384564836604Q695.7409358797596 336.6188481389535 693.1157535364857 339.7787898484498Q690.490571193212 342.9144243140268 686.9903280688469 345.3694559498662Q683.4900849444819 347.8244875857056 679.28493174646 349.914910562757L679.28493174646 349.914910562757Q681.2295112599961 350.6198206364138 683.8546936032699 352.1025625154851Q686.4798759465436 353.58530439455643 688.9106003384638 356.21048673783025Q691.3656319743033 358.8356690811041 693.0428318047282 362.96790054736834Q694.6957243912339 367.07582476971345 694.6957243912339 373.0310995299179L694.6957243912339 373.0310995299179Q694.6957243912339 380.90664655973933 691.3656319743033 387.5425241496814Q688.0355395573725 394.2027089835427 681.4725836991881 399.0155432795447Q674.9096278410036 403.82837757554665 665.3811882246764 406.5264816505781Q655.8527486083493 409.2488929695287 643.407439721718 409.2488929695287L643.407439721718 409.2488929695287L591.4385522224644 409.2488929695287L615.0651933119286 298.1161737709378L661.103113294897 298.1161737709378Q667.9091415922735 298.1161737709378 674.6665554018116 299.08846352770587Q681.3996619674305 300.0364460405548 686.7229483857357 302.83177909126294Q692.0705420479601 305.6514193858904 695.4006344648908 310.63440438932673Q698.7307268818214 315.61738939276313 698.7307268818214 323.49293642258453ZM643.0671383068491 344.6645458762094L651.1128360441049 344.6645458762094Q654.977687827258 344.6645458762094 657.6757919022895 342.4039721917236Q660.39820322124 340.1190912633186 662.1483247834226 336.71607711463037Q663.8984463456052 333.28875572202287 664.7735071266964 329.35098220711217Q665.6485679077877 325.41320869220147 665.6485679077877 322.27757422662444L665.6485679077877 322.27757422662444Q665.6485679077877 317.19736024751126 663.2907652476251 313.59988814746936Q660.9086553435433 310.0267232913467 655.8527486083493 310.0267232913467L655.8527486083493 310.0267232913467L650.6023839218017 310.0267232913467L643.0671383068491 344.6645458762094ZM631.5211974452283 398.21340423021104L638.5216836939584 398.21340423021104Q643.772048380506 398.21340423021104 647.2722915048711 395.2479204720684Q650.7725346292361 392.2824367139258 653.0331083137219 387.90713280846944Q655.3179892421269 383.53182890301315 656.290278998895 378.71899460701115Q657.2382615117438 373.90616031100916 657.2382615117438 370.21145923529053L657.2382615117438 370.21145923529053Q657.2382615117438 364.08603376765166 654.7103081441469 360.512868911529Q652.1580475326307 356.9153968114871 646.5673814312142 356.9153968114871L646.5673814312142 356.9153968114871L640.1016545487065 356.9153968114871L631.5211974452283 398.21340423021104ZM698.5362689304678 409.2488929695287L714.4818209414642 333.99366579567976L742.9942180586879 333.99366579567976L745.6194004019618 347.11957751204875L746.8590698418411 347.11957751204875Q750.8697650885094 340.82400133697547 757.1653412635826 336.4486974315191Q763.4852246825751 332.0733935260628 773.7914961043167 332.0733935260628L773.7914961043167 332.0733935260628Q774.4964061779735 332.0733935260628 775.9791480570449 332.1463152578204Q777.4861971800354 332.24354423349723 779.3092404739756 332.6810746240428Q781.1565910118348 333.11860501458847 783.1740922571287 333.8964368200029Q785.1672862585033 334.6985758693366 787.1118657720393 336.0840887727311L787.1118657720393 336.0840887727311L779.4064694496524 372.1560387488267L760.3252829730789 372.1560387488267Q759.98498155821 361.29070071694343 758.4050107034619 357.0126257871639Q756.8250398487138 352.71024361346514 753.3247967243487 352.71024361346514L753.3247967243487 352.71024361346514Q751.5746751621662 352.71024361346514 749.5571739168724 353.5123826627988Q747.5396726715787 354.29021446821326 745.4492496945273 356.9153968114871L745.4492496945273 356.9153968114871L734.2436102477753 409.2488929695287L698.5362689304678 409.2488929695287ZM834.875600073271 333.99366579567976L818.6140538913249 409.2488929695287L783.0768632814519 409.2488929695287L798.998108048529 333.99366579567976L834.875600073271 333.99366579567976ZM839.4210546861617 311.07193477987244L839.4210546861617 311.07193477987244Q839.4210546861617 315.0826300265407 837.768162099656 318.07242102860255Q836.1152695131502 321.0379047867452 833.3928581941997 323.15263500771573Q830.6704468752491 325.24305798476706 827.170203750884 326.28826947329276Q823.6699606265189 327.33348096181845 819.9995667947195 327.33348096181845L819.9995667947195 327.33348096181845Q812.9990805459893 327.33348096181845 808.2834752256641 324.02769578880697Q803.5435626614199 320.6976033718763 803.5435626614199 313.5269664157118L803.5435626614199 313.5269664157118Q803.5435626614199 309.66211463255866 805.123533516168 306.59940189873925Q806.703504370916 303.53668916491984 809.4259156898667 301.51918791962606Q812.1240197648981 299.5259939182515 815.7214918649399 298.45647518580665Q819.2946567210626 297.41126369728096 823.1595085042156 297.41126369728096L823.1595085042156 297.41126369728096Q829.9898440455114 297.41126369728096 834.7054493658366 300.7413561142116Q839.4210546861617 304.07144853114227 839.4210546861617 311.07193477987244ZM923.4268896709234 374.0763110184436L874.2533352223779 374.0763110184436Q873.5484251487212 377.9168555576775 873.3053527095292 381.41709868204254Q873.0379730264178 384.91734180640765 873.0379730264178 387.7126748571158L873.0379730264178 387.7126748571158Q873.0379730264178 389.29264571186394 873.2081237338523 391.2129179814809Q873.3782744412867 393.157497495017 873.9859555392668 394.81039008152277Q874.617943881166 396.4632826680285 875.7360771014493 397.605723132231Q876.8785175656518 398.74816359643347 878.9932477866223 398.74816359643347L878.9932477866223 398.74816359643347Q880.5489113974513 398.74816359643347 882.566412642745 397.70295210790783Q884.5839138880388 396.65774061938214 886.6014151333325 394.7131611058459Q888.6189163786263 392.79288883622905 890.4419596725664 389.99755578552083Q892.2893102104258 387.2022227348126 893.3345216989514 383.70197961044755L893.3345216989514 383.70197961044755L922.0413767675288 383.70197961044755L917.495922154638 402.418557428233Q913.9956790302731 404.70343835663795 909.4259171734631 406.2834092113861Q904.8804625605724 407.839072822215 899.8002485814591 408.81136257898305Q894.7443418462651 409.7836523357511 889.4939771597176 410.2211827262968Q884.24361247317 410.6587131168424 879.5036999089256 410.6587131168424L879.5036999089256 410.6587131168424Q870.753092098013 410.6587131168424 863.2421537269795 409.0787422620943Q855.706908112027 407.49877140734617 850.1162420106106 403.65822686811225Q844.5012686652749 399.79337508495917 841.2684052240211 393.4005699342091Q838.0355417827673 387.0320720273782 838.0355417827673 377.5765541428087L838.0355417827673 377.5765541428087Q838.0355417827673 368.99609703933044 840.7336458577986 360.78024859464017Q843.4560571767493 352.5400929060308 849.8488623274993 346.1472877552807Q856.2416674782494 339.7787898484498 866.9854692905367 335.9139380652967Q877.7535783467431 332.0733935260628 893.8692810651739 332.0733935260628L893.8692810651739 332.0733935260628Q911.3704966869992 332.0733935260628 920.1940262296696 337.4939089200448Q929.041863016259 342.9144243140268 929.041863016259 354.4603651756477L929.041863016259 354.4603651756477Q929.041863016259 359.2002777398921 927.6320428689453 364.7180221095509Q926.2465299655507 370.21145923529053 923.4268896709234 374.0763110184436L923.4268896709234 374.0763110184436ZM897.5396748969733 353.2450029796876L897.5396748969733 353.2450029796876Q897.5396748969733 347.8244875857056 895.7895533347908 345.90421531608865Q894.0394317726083 343.9596358025525 891.5844001367689 343.9596358025525L891.5844001367689 343.9596358025525Q888.7890670860606 343.9596358025525 886.4312644258981 345.80698634041187Q884.0491545218163 347.6543368782712 882.1288822521994 350.71704961209065Q880.2086099825824 353.77976234591006 878.6286391278343 357.71753586082076Q877.0486682730862 361.65530937573146 876.0034567845605 366.03061328118775L876.0034567845605 366.03061328118775L895.9597040422252 366.03061328118775Q896.3000054570941 363.91588306021725 896.664614115882 361.65530937573146L896.664614115882 361.65530937573146Q897.0049155307508 359.7107298621953 897.2722952138622 357.4501561777095Q897.5396748969733 355.16527524930456 897.5396748969733 353.2450029796876ZM936.5528013872923 345.709757364735L939.1779837305662 333.99366579567976L952.6685041057233 333.99366579567976L954.2484749604713 326.8230288395152Q956.509048644957 316.32229946642 960.8843525504135 309.0544335345786Q965.2596564558697 301.78656760273725 971.312160191751 297.24111298984656Q977.340356683713 292.69565837695575 985.0457530061001 290.67815713166203Q992.751149328487 288.6606558863683 1001.5017571393997 288.6606558863683L1001.5017571393997 288.6606558863683Q1006.9222725333817 288.6606558863683 1013.0476980010205 289.36556596002515Q1019.1731234686595 290.070476033682 1025.8090010586016 291.6504468884301L1025.8090010586016 291.6504468884301L1023.0136680078933 305.6514193858904Q1019.1731234686595 305.11666001966796 1014.7978195632031 304.8492803365567Q1010.4225156577468 304.5819006534455 1007.797333314473 304.5819006534455L1007.797333314473 304.5819006534455Q1004.2970901901078 304.5819006534455 1001.7448295785917 305.11666001966796Q999.2168762109948 305.6514193858904 997.2966039413777 307.1341612649617Q995.3763316717609 308.616903144033 993.9665115244471 311.2420854873068Q992.5566913771335 313.8672678305806 991.6816305960422 318.24257173603695L991.6816305960422 318.24257173603695L988.3758454230308 333.99366579567976L1006.7521218259474 333.99366579567976L1004.4672408975423 345.709757364735L985.9208137871913 345.709757364735L972.4302934120343 409.2488929695287L936.747259338646 409.2488929695287L950.2134724698838 345.709757364735L936.5528013872923 345.709757364735ZM1056.095826981927 333.99366579567976L1039.8099735560618 409.2488929695287L1004.2970901901078 409.2488929695287L1020.2183349571851 333.99366579567976L1056.095826981927 333.99366579567976ZM1060.6412815948179 311.07193477987244L1060.6412815948179 311.07193477987244Q1060.6412815948179 315.0826300265407 1058.988389008312 318.07242102860255Q1057.3111891778872 321.0379047867452 1054.6130851028558 323.15263500771573Q1051.8906737839052 325.24305798476706 1048.39043065954 326.28826947329276Q1044.890187535175 327.33348096181845 1041.2197937033754 327.33348096181845L1041.2197937033754 327.33348096181845Q1034.2193074546453 327.33348096181845 1029.5037021343203 324.02769578880697Q1024.763789570076 320.6976033718763 1024.763789570076 313.5269664157118L1024.763789570076 313.5269664157118Q1024.763789570076 309.66211463255866 1026.343760424824 306.59940189873925Q1027.9237312795722 303.53668916491984 1030.6218353546035 301.51918791962606Q1033.3442466735542 299.5259939182515 1036.941718773596 298.45647518580665Q1040.5148836297187 297.41126369728096 1044.379735412872 297.41126369728096L1044.379735412872 297.41126369728096Q1051.1857637102482 297.41126369728096 1055.9256762744926 300.7413561142116Q1060.6412815948179 304.07144853114227 1060.6412815948179 311.07193477987244ZM1062.9261625232227 345.709757364735L1065.5513448664965 333.99366579567976L1079.0175579977345 333.99366579567976L1080.5975288524826 326.8230288395152Q1082.8824097808874 316.32229946642 1087.2577136863438 309.0544335345786Q1091.6330175918001 301.78656760273725 1097.6612140837624 297.24111298984656Q1103.6894105757242 292.69565837695575 1111.3948068981113 290.67815713166203Q1119.1002032204983 288.6606558863683 1127.850811031411 288.6606558863683L1127.850811031411 288.6606558863683Q1133.271326425393 288.6606558863683 1139.3967518930317 289.36556596002515Q1145.5221773606709 290.070476033682 1152.182362194532 291.6504468884301L1152.182362194532 291.6504468884301L1149.3870291438238 305.6514193858904Q1145.5221773606709 305.11666001966796 1141.1468734552143 304.8492803365567Q1136.771569549758 304.5819006534455 1134.1463872064842 304.5819006534455L1134.1463872064842 304.5819006534455Q1130.6461440821192 304.5819006534455 1128.1181907145221 305.11666001966796Q1125.565930103006 305.6514193858904 1123.6456578333891 307.1341612649617Q1121.725385563772 308.616903144033 1120.3155654164584 311.2420854873068Q1118.9300525130639 313.8672678305806 1118.0549917319727 318.24257173603695L1118.0549917319727 318.24257173603695L1114.724899315042 333.99366579567976L1133.1011757179585 333.99366579567976L1130.8162947895535 345.709757364735L1112.2698676792024 345.709757364735L1098.8036545479647 409.2488929695287L1063.0963132306572 409.2488929695287L1076.5625263618952 345.709757364735L1062.9261625232227 345.709757364735ZM1135.0214479875754 333.99366579567976L1171.9441515008432 333.99366579567976L1177.1945161873907 385.4521011726301L1204.8561597674425 333.99366579567976L1223.4025868777935 333.99366579567976L1181.2295186779784 409.2488929695287Q1174.933942502905 420.2843817088463 1168.443908376478 426.21534922513155Q1161.9781814939704 432.170623985336 1154.37001414726 434.96595703604424Q1146.76184680055 437.7855973306717 1137.5737085990918 438.2231277212173Q1128.3855703976333 438.6606581117629 1116.6451715846588 438.6606581117629L1116.6451715846588 438.6606581117629L1119.2703539279328 426.5799578839196Q1125.0554779807026 426.5799578839196 1130.0384629841392 426.40980717648523Q1135.0214479875754 426.21534922513155 1138.0112389896374 425.3402884440403L1138.0112389896374 425.3402884440403Q1142.0219342363057 424.2950769555146 1143.772055798488 421.59697288048324Q1145.5221773606709 418.87456156153263 1145.5221773606709 413.624196874985L1145.5221773606709 413.624196874985Q1145.5221773606709 410.12395375061993 1144.9144962626906 405.57849913772924Q1144.3068151647105 401.03304452483843 1143.6019050910536 395.95283054572525L1143.6019050910536 395.95283054572525L1135.0214479875754 333.99366579567976Z " fill="#000000" transform="matrix(0.7152183581337437,0,0,0.7152183581337436,0,39.90320465934977)"/></g></svg>